<?xml version="1.0" standalone="no"?>
<!DOCTYPE svg PUBLIC "-//W3C//DTD SVG 20010904//EN"
 "http://www.w3.org/TR/2001/REC-SVG-20010904/DTD/svg10.dtd">
<svg version="1.0" xmlns="http://www.w3.org/2000/svg"
 width="1024.000000pt" height="1024.000000pt" viewBox="0 0 1024.000000 1024.000000"
 preserveAspectRatio="xMidYMid meet">
<metadata>
Created by potrace 1.14, written by Peter Selinger 2001-2017
</metadata>
<g transform="translate(0.000000,1024.000000) scale(0.100000,-0.100000)"
fill="#000000" stroke="none">
<path d="M5990 8819 c-339 -30 -734 -170 -1034 -365 -260 -170 -489 -399 -667
-664 -78 -117 -185 -326 -228 -446 l-32 -90 -107 19 c-126 22 -367 19 -493 -7
-583 -117 -1032 -574 -1126 -1147 l-16 -96 -86 -7 c-47 -3 -133 -17 -191 -30
-602 -136 -1056 -627 -1146 -1240 -20 -133 -15 -354 11 -486 124 -634 631
-1116 1263 -1200 79 -11 86 -10 130 12 62 31 92 76 92 141 0 62 -30 118 -79
145 -31 17 -59 21 -216 25 -152 3 -195 8 -277 30 -202 53 -371 150 -521 296
-228 222 -347 505 -347 826 0 190 36 346 115 507 152 307 411 520 746 614 90
25 109 27 439 34 190 5 357 11 373 15 l27 7 0 137 c0 155 10 231 46 351 85
281 285 516 549 648 179 89 314 117 530 109 162 -5 254 -26 428 -96 43 -17 79
-31 81 -31 5 0 45 132 85 275 30 106 62 187 128 320 422 850 1402 1277 2322
1014 464 -133 883 -453 1131 -864 282 -467 364 -1040 226 -1578 -19 -72 -51
-174 -71 -226 -19 -52 -34 -98 -33 -103 2 -5 60 -33 129 -61 143 -60 201 -94
315 -183 222 -172 375 -442 420 -734 54 -361 -67 -722 -327 -981 -204 -203
-460 -318 -750 -337 -168 -12 -219 -48 -227 -159 -3 -48 0 -64 20 -92 48 -70
65 -76 211 -75 387 5 800 204 1058 511 186 220 293 449 340 724 18 104 20 150
16 284 -6 181 -23 284 -74 435 -110 330 -338 615 -636 794 l-103 62 18 69
c159 617 52 1301 -287 1830 -236 369 -546 647 -930 835 -388 190 -809 268
-1245 229z"/>
<path d="M6758 5420 c-199 -25 -377 -118 -525 -273 -88 -93 -150 -197 -194
-325 -32 -93 -33 -104 -34 -247 0 -130 3 -160 23 -225 95 -304 367 -504 682
-503 174 1 306 59 426 186 210 221 216 543 15 743 -105 104 -263 158 -399 136
-133 -22 -250 -109 -308 -227 -26 -55 -29 -69 -29 -165 0 -95 3 -110 27 -156
55 -105 169 -176 281 -178 41 -1 52 3 73 27 13 15 24 39 24 51 0 37 -36 74
-78 81 -70 12 -101 26 -131 60 -62 71 -65 167 -8 252 83 124 263 140 402 35
104 -78 149 -234 110 -378 -91 -335 -513 -418 -786 -153 -153 147 -204 369
-137 588 73 240 250 413 495 483 105 31 281 30 398 -1 164 -43 315 -132 431
-252 114 -119 173 -220 221 -376 25 -82 27 -101 27 -268 0 -153 -4 -192 -22
-258 -60 -217 -147 -370 -302 -528 -180 -183 -384 -291 -634 -334 -77 -13
-317 -15 -1838 -15 l-1750 0 -30 -30 c-25 -26 -29 -36 -24 -63 8 -41 36 -64
89 -72 23 -3 823 -4 1777 -2 1920 4 1789 -1 2000 69 378 124 687 420 824 791
214 576 5 1159 -509 1420 -174 89 -402 130 -587 107z"/>
<path d="M4982 4980 c-109 -29 -187 -75 -272 -160 -82 -81 -137 -177 -161
-280 -19 -80 -15 -213 9 -287 77 -242 338 -390 577 -328 231 61 365 329 271
540 -32 71 -75 116 -148 155 -123 66 -275 49 -368 -41 -109 -106 -121 -268
-28 -373 72 -83 192 -113 243 -61 49 48 15 135 -53 135 -37 0 -78 31 -86 66
-10 37 10 89 45 119 24 19 42 25 81 25 182 0 241 -228 92 -359 -107 -94 -279
-77 -395 39 -68 68 -92 139 -87 255 5 116 43 198 129 280 107 102 242 141 387
113 152 -30 263 -98 350 -215 73 -96 103 -183 110 -309 6 -131 -14 -224 -76
-347 -37 -75 -62 -108 -131 -177 -93 -93 -182 -147 -316 -191 l-70 -24 -1178
-5 -1179 -5 -19 -24 c-26 -32 -24 -73 6 -105 l25 -27 1187 4 c1350 3 1234 -4
1428 92 243 121 409 329 476 595 21 82 18 298 -5 380 -69 248 -269 449 -511
514 -100 27 -247 30 -333 6z"/>
<path d="M3685 2863 c-64 -16 -86 -93 -40 -138 l24 -25 1146 0 c1249 0 1221 1
1360 -57 386 -162 563 -639 355 -962 -45 -71 -152 -166 -225 -201 -68 -32
-182 -60 -249 -60 -197 0 -374 151 -416 355 -42 202 94 386 294 402 80 7 133
-9 184 -53 125 -107 118 -286 -12 -345 -77 -35 -149 -18 -186 44 -43 70 -11
138 72 151 41 7 78 45 78 82 0 12 -11 36 -24 51 -21 24 -31 28 -73 27 -95 -3
-175 -58 -213 -146 -18 -43 -22 -65 -18 -123 11 -163 125 -269 288 -269 91 1
166 32 231 97 174 174 101 501 -140 620 -53 26 -78 32 -151 35 -144 7 -247
-34 -356 -142 -105 -106 -152 -231 -141 -381 8 -109 38 -198 95 -287 176 -269
514 -345 830 -187 182 92 319 268 373 480 21 81 16 265 -10 364 -73 276 -270
502 -526 604 -173 68 -98 64 -1375 67 -635 1 -1164 0 -1175 -3z"/>
</g>
</svg>
