 <svg  version="1.0" xmlns="http://www.w3.org/2000/svg"  width="900.000000pt" height="900.000000pt" viewBox="0 0 900.000000 900.000000"  preserveAspectRatio="xMidYMid meet">  <g transform="translate(0.000000,900.000000) scale(0.100000,-0.100000)" fill="#ffffff" stroke="none"> <path d="M4680 6651 c-100 -14 -269 -73 -311 -108 -8 -7 -18 -13 -22 -13 -17 0 -130 -85 -184 -139 -102 -100 -136 -152 -227 -341 -11 -25 -15 -25 -156 -31 -152 -6 -184 -14 -276 -65 -137 -76 -249 -225 -284 -377 -7 -32 -17 -60 -22 -63 -5 -3 -48 -14 -96 -24 -176 -37 -318 -140 -408 -295 -41 -71 -56 -113 -61 -170 -3 -46 -3 -49 12 -31 8 11 15 29 15 41 0 47 83 172 151 227 103 82 156 99 329 105 80 2 157 9 171 14 25 10 26 15 32 100 6 71 13 102 38 153 104 214 337 316 548 240 81 -29 95 -25 106 29 42 206 223 443 409 534 159 78 226 94 393 94 160 0 227 -15 368 -83 69 -34 85 -44 146 -94 120 -99 196 -213 263 -391 20 -53 39 -191 37 -271 -1 -74 -22 -207 -38 -237 -6 -11 -13 -37 -17 -57 -6 -31 -3 -39 16 -52 12 -9 28 -16 36 -16 22 0 125 -71 168 -116 22 -23 58 -78 79 -121 38 -77 39 -79 39 -198 1 -123 -2 -138 -53 -244 -24 -51 -129 -152 -191 -185 -57 -30 -90 -39 -199 -56 -86 -14 -114 -53 -75 -108 31 -44 195 -23 325 43 241 120 378 399 324 656 -27 126 -76 220 -160 304 -72 73 -126 115 -146 115 -13 0 -9 69 11 170 26 141 -11 365 -87 530 -50 107 -106 183 -203 278 -116 113 -238 182 -420 236 -62 19 -293 29 -380 17z"/> <path d="M5005 5246 c-67 -19 -114 -45 -159 -91 -139 -138 -140 -373 -3 -478 149 -114 336 -78 407 78 52 114 -8 249 -126 284 -41 12 -53 12 -101 -3 -42 -14 -60 -26 -83 -58 -61 -83 -29 -194 62 -218 33 -9 44 -9 55 2 19 20 6 47 -26 54 -42 10 -61 33 -61 73 0 92 119 130 191 61 24 -23 49 -76 49 -105 0 -28 -32 -98 -58 -125 -55 -57 -149 -66 -228 -21 -97 56 -139 150 -115 257 21 94 71 160 154 206 36 19 57 22 142 22 89 0 106 -3 152 -27 61 -31 148 -117 170 -167 60 -132 57 -253 -10 -387 -59 -119 -158 -202 -290 -243 -59 -19 -98 -20 -797 -20 -404 0 -741 -4 -748 -9 -8 -5 -12 -17 -10 -27 3 -18 28 -19 758 -22 673 -2 760 0 805 14 216 70 336 201 390 429 25 104 5 222 -58 325 -34 57 -128 141 -187 167 -91 40 -197 51 -275 29z"/> <path d="M4291 5066 c-77 -25 -162 -146 -161 -231 1 -33 25 -88 55 -126 61 -75 169 -93 243 -39 47 34 59 52 68 108 14 89 -44 162 -131 162 -40 0 -52 -5 -81 -34 -29 -29 -34 -41 -34 -82 0 -62 29 -94 84 -94 31 0 36 3 36 24 0 18 -8 27 -30 35 -35 12 -41 48 -12 74 44 40 105 1 105 -65 0 -34 -6 -47 -32 -70 -63 -56 -156 -26 -196 63 -18 40 -18 43 -1 93 23 63 75 112 133 124 133 29 273 -88 273 -227 0 -104 -75 -217 -175 -264 l-56 -27 -483 0 c-267 0 -491 -3 -500 -6 -9 -3 -16 -17 -16 -30 0 -19 5 -24 28 -24 15 0 244 0 510 0 l483 0 55 25 c73 34 144 101 179 172 42 84 47 198 12 274 -27 58 -47 83 -99 122 -68 52 -175 70 -257 43z"/> <path d="M2611 4898 c0 -39 3 -48 9 -33 12 28 12 85 0 85 -5 0 -10 -24 -9 -52z"/> <path d="M2630 4765 c0 -42 42 -147 85 -210 55 -82 209 -215 249 -215 6 0 16 -4 22 -10 11 -11 149 -49 180 -50 28 0 64 40 64 73 0 36 -34 57 -95 57 -90 0 -185 26 -276 75 -37 21 -147 139 -164 177 -9 18 -19 40 -25 48 -5 8 -12 32 -15 53 -7 47 -25 49 -25 2z"/> <path d="M3773 4189 c-17 -17 -16 -24 3 -43 14 -14 74 -16 510 -16 471 0 497 -1 533 -20 53 -26 99 -67 125 -109 28 -44 56 -125 56 -160 0 -42 -31 -118 -64 -153 -56 -61 -83 -73 -167 -73 -67 0 -79 3 -112 28 -43 33 -77 93 -77 137 0 43 33 102 68 123 45 26 104 22 141 -9 26 -21 31 -33 31 -69 0 -35 -5 -48 -26 -64 -33 -26 -56 -27 -77 -3 -28 30 -22 66 13 79 20 8 30 18 30 32 0 18 -6 21 -38 21 -55 0 -84 -33 -84 -96 0 -43 5 -52 36 -81 59 -54 139 -40 187 33 40 60 14 164 -51 213 -42 30 -144 34 -187 6 -147 -94 -134 -288 26 -388 51 -31 187 -31 247 0 96 51 164 161 164 267 0 52 -27 147 -49 169 -6 6 -11 16 -11 23 0 19 -107 112 -158 136 -47 22 -52 23 -552 26 -395 2 -508 0 -517 -9z"/> <path d="M3865 3498 c-3 -7 -4 -218 -3 -468 l3 -455 43 -3 c76 -6 72 -32 72 467 0 334 -3 450 -12 459 -16 16 -97 16 -103 0z"/> <path d="M6512 3498 c-8 -8 -12 -55 -12 -160 0 -81 -4 -148 -9 -148 -4 0 -19 8 -32 19 -42 32 -122 45 -190 31 -100 -22 -167 -100 -195 -230 -18 -82 -18 -128 0 -211 21 -99 70 -173 138 -209 64 -33 181 -31 237 4 50 32 54 32 66 4 8 -19 18 -23 55 -23 l45 0 0 465 0 465 -45 3 c-26 2 -50 -2 -58 -10z m-53 -386 l36 -29 0 -179 0 -178 -43 -33 c-37 -28 -52 -33 -97 -33 -94 0 -137 39 -170 154 -39 135 22 311 115 329 56 12 123 -2 159 -31z"/> <path d="M2072 3458 c-13 -13 -16 -47 -6 -72 5 -13 26 -16 129 -16 68 0 130 -3 139 -6 14 -5 16 -49 16 -388 0 -284 3 -385 12 -394 7 -7 26 -12 44 -12 68 0 64 -27 64 395 0 304 3 385 13 393 8 7 67 13 138 14 l124 3 0 45 0 45 -330 3 c-249 2 -334 -1 -343 -10z"/> <path d="M3559 3443 c-11 -30 -4 -74 14 -85 22 -14 74 -8 90 10 40 44 8 102 -57 102 -31 0 -38 -4 -47 -27z"/> <path d="M5106 3446 c-21 -32 -20 -46 4 -74 28 -33 85 -28 108 11 15 25 15 30 2 55 -12 21 -24 28 -56 30 -35 3 -44 -1 -58 -22z"/> <path d="M3045 3235 c-27 -7 -64 -20 -82 -29 -46 -24 -93 -87 -93 -125 0 -30 2 -31 43 -31 42 0 76 21 77 46 0 5 11 16 24 26 73 53 185 38 224 -31 27 -47 29 -97 5 -109 -10 -5 -69 -12 -130 -15 -118 -6 -149 -16 -206 -67 -60 -52 -77 -153 -40 -225 23 -43 40 -60 91 -88 49 -28 175 -26 230 3 23 12 42 26 42 31 0 20 28 7 34 -16 7 -28 35 -38 87 -33 28 2 33 7 31 23 -2 11 -6 119 -8 240 -3 126 -10 237 -16 260 -23 78 -71 120 -163 144 -50 14 -87 13 -150 -4z m213 -406 c3 -60 0 -70 -24 -98 -93 -111 -273 -84 -274 41 0 79 90 129 225 125 l70 -2 3 -66z"/> <path d="M5629 3234 c-26 -8 -59 -26 -73 -39 -35 -32 -44 -31 -48 3 -3 25 -7 27 -56 30 l-52 3 2 -328 3 -328 50 0 50 0 5 240 c5 262 6 263 68 306 47 32 148 35 182 4 43 -39 45 -52 50 -305 l5 -245 29 -3 c15 -2 39 -1 52 2 l24 6 0 234 c0 146 -5 254 -12 286 -16 70 -68 122 -138 138 -63 15 -82 14 -141 -4z"/> <path d="M3562 2903 l3 -328 29 -3 c15 -2 39 -1 52 2 l24 6 0 325 0 325 -55 0 -55 0 2 -327z"/> <path d="M4100 3218 c0 -12 16 -67 42 -143 5 -16 14 -46 18 -65 5 -19 18 -66 30 -105 12 -38 25 -86 30 -105 4 -19 13 -48 19 -65 5 -16 19 -59 30 -95 l19 -65 41 -3 c38 -3 42 -1 55 30 8 18 22 60 31 93 10 33 23 76 30 95 7 19 20 62 30 95 31 106 51 156 61 154 9 -3 27 -44 44 -104 5 -16 16 -52 24 -80 19 -64 35 -112 52 -153 8 -18 14 -40 14 -50 0 -9 9 -32 20 -50 18 -29 25 -33 57 -30 32 3 38 7 51 43 8 22 18 56 22 75 4 19 13 49 18 65 6 17 18 57 28 90 9 33 22 78 29 100 6 22 20 67 29 100 10 33 24 80 32 105 24 76 22 81 -38 78 -58 -3 -52 6 -82 -115 -9 -35 -23 -91 -32 -125 -8 -35 -22 -86 -30 -114 -8 -28 -14 -62 -14 -77 0 -73 -40 -16 -75 108 -10 33 -23 76 -30 95 -7 19 -20 62 -30 95 -38 130 -38 130 -87 133 -45 3 -45 3 -60 -40 -9 -24 -23 -70 -33 -103 -10 -33 -23 -76 -30 -95 -7 -19 -20 -62 -29 -95 -21 -72 -38 -108 -51 -109 -10 -1 -13 9 -40 114 -9 36 -23 88 -30 115 -32 119 -43 162 -49 188 -6 25 -10 27 -61 27 -37 0 -55 -4 -55 -12z"/> <path d="M5107 3223 c-4 -3 -7 -147 -7 -318 0 -348 -2 -339 67 -333 l38 3 5 318 c3 174 4 322 2 327 -4 11 -95 14 -105 3z"/> </g> </svg> 